<?xml version="1.0" encoding="UTF-8"?>
<svg width="22px" height="20px" viewBox="0 0 22 20" version="1.1" xmlns="http://www.w3.org/2000/svg" xmlns:xlink="http://www.w3.org/1999/xlink">
    <!-- Generator: sketchtool 52.2 (67145) - http://www.bohemiancoding.com/sketch -->
    <title>596AE10D-B5B8-446D-BEA5-46B4C9CFBC76</title>
    <desc>Created with sketchtool.</desc>
    <g id="Page-1" stroke="none" stroke-width="1" fill="none" fill-rule="evenodd">
        <g id="Desktop-HD-Copy" transform="translate(-1196.000000, -3234.000000)" fill="#FEFEFE">
            <g id="github" transform="translate(1196.000000, 3234.000000)">
                <path d="M10.5253465,0 C4.71275491,0 0,4.5904205 0,10.2533868 C0,14.7833822 3.01582711,18.6260419 7.19869596,19.9824598 C7.72535101,20.0762447 7.91727315,19.7596422 7.91727315,19.4877292 C7.91727315,19.2447699 7.90822632,18.5996059 7.9030567,17.7442129 C4.97511313,18.3635703 4.35734353,16.3695415 4.35734353,16.3695415 C3.87850747,15.1855869 3.18836319,14.8696139 3.18836319,14.8696139 C2.23262967,14.2338913 3.26073787,14.2464799 3.26073787,14.2464799 C4.31727897,14.3188641 4.87301313,15.30329 4.87301313,15.30329 C5.81194538,16.869937 7.3369833,16.417378 7.93665923,16.1555359 C8.0322972,15.4927479 8.30370226,15.0408184 8.60483263,14.784641 C6.26751815,14.525946 3.81001,13.6460053 3.81001,9.7171139 C3.81001,8.59799041 4.22034859,7.68280168 4.89369161,6.96588286 C4.78512959,6.7065584 4.42390238,5.66422516 4.99643781,4.25241751 C4.99643781,4.25241751 5.88044284,3.97672792 7.89142505,5.30356275 C8.73084211,5.07570971 9.63164841,4.96241262 10.5266389,4.95863605 C11.420337,4.96241262 12.3211433,5.07570971 13.1618527,5.30356275 C15.1715425,3.97672792 16.053609,4.25241751 16.053609,4.25241751 C16.628083,5.66422516 16.2668558,6.7065584 16.1582938,6.96588286 C16.8329292,7.68280168 17.240683,8.59799041 17.240683,9.7171139 C17.240683,13.6560761 14.7792976,14.5227989 12.4342287,14.7764585 C12.8122572,15.0930609 13.1489287,15.7187126 13.1489287,16.6754436 C13.1489287,18.045709 13.1360046,19.1516145 13.1360046,19.4877292 C13.1360046,19.7621599 13.325342,20.0812801 13.8597514,19.981201 C18.0393893,18.6222653 21.0526316,14.7821233 21.0526316,10.2533868 C21.0526316,4.5904205 16.3392305,0 10.5253465,0" id="Fill-1"></path>
            </g>
        </g>
    </g>
</svg>