<?xml version="1.0" encoding="UTF-8"?>
<svg width="24px" height="23px" viewBox="0 0 24 23" version="1.1" xmlns="http://www.w3.org/2000/svg" xmlns:xlink="http://www.w3.org/1999/xlink">
    <!-- Generator: sketchtool 52.2 (67145) - http://www.bohemiancoding.com/sketch -->
    <title>2488FC30-AADC-4E15-A545-7CEB5879BBCF</title>
    <desc>Created with sketchtool.</desc>
    <g id="Page-1" stroke="none" stroke-width="1" fill="none" fill-rule="evenodd">
        <g id="Desktop-HD-Copy" transform="translate(-1325.000000, -3232.000000)" fill="#FFFFFF">
            <g id="instagram" transform="translate(1325.000000, 3232.000000)">
                <path d="M11.6009743,0 C8.48983779,0 8.10040883,0.0129375 6.87914814,0.069 C5.65931917,0.1250625 4.82748745,0.319125 4.09873986,0.60375 C3.34565297,0.897 2.70567228,1.290875 2.06998676,1.9305625 C1.43286952,2.5688125 1.0405771,3.211375 0.748505379,3.9675 C0.465024,4.6991875 0.271741241,5.534375 0.215904,6.759125 C0.160066759,7.9853125 0.147181241,8.3763125 0.147181241,11.5 C0.147181241,14.6236875 0.160066759,15.0146875 0.215904,16.240875 C0.271741241,17.465625 0.465024,18.3008125 0.748505379,19.0325 C1.0405771,19.788625 1.43286952,20.4311875 2.06998676,21.0694375 C2.70567228,21.709125 3.34565297,22.103 4.09873986,22.39625 C4.82748745,22.680875 5.65931917,22.8749375 6.87914814,22.931 C8.10040883,22.9870625 8.48983779,23 11.6009743,23 C14.7121109,23 15.1015399,22.9870625 16.3228006,22.931 C17.5426295,22.8749375 18.3744612,22.680875 19.1032088,22.39625 C19.8562957,22.103 20.4962764,21.709125 21.1319619,21.0694375 C21.7690792,20.4311875 22.1613716,19.788625 22.4534433,19.0325 C22.7369247,18.3008125 22.9302074,17.465625 22.9860447,16.240875 C23.0418819,15.0146875 23.0547674,14.6236875 23.0547674,11.5 C23.0547674,8.3763125 23.0418819,7.9853125 22.9860447,6.759125 C22.9302074,5.534375 22.7369247,4.6991875 22.4534433,3.9675 C22.1613716,3.211375 21.7690792,2.5688125 21.1319619,1.9305625 C20.4962764,1.290875 19.8562957,0.897 19.1032088,0.60375 C18.3744612,0.319125 17.5426295,0.1250625 16.3228006,0.069 C15.1015399,0.0129375 14.7121109,0 11.6009743,0 L11.6009743,0 Z M11.6009743,2.0714375 C14.6591371,2.0714375 15.0213633,2.084375 16.2297385,2.139 C17.3464833,2.19075 17.9521026,2.377625 18.3558488,2.53575 C18.8913137,2.7441875 19.2721523,2.992875 19.673035,3.395375 C20.0739178,3.797875 20.3216061,4.18025 20.5292061,4.717875 C20.6866957,5.12325 20.8728199,5.7313125 20.9243619,6.8525625 C20.9787674,8.0658125 20.991653,8.4295 20.991653,11.5 C20.991653,14.5705 20.9787674,14.9341875 20.9243619,16.1474375 C20.8728199,17.2686875 20.6866957,17.87675 20.5292061,18.282125 C20.3216061,18.81975 20.0739178,19.202125 19.673035,19.604625 C19.2721523,20.007125 18.8913137,20.2558125 18.3558488,20.46425 C17.9521026,20.622375 17.3464833,20.80925 16.2297385,20.861 C15.0213633,20.915625 14.6591371,20.9285625 11.6009743,20.9285625 C8.54281159,20.9285625 8.18058538,20.915625 6.97221021,20.861 C5.85546538,20.80925 5.24984607,20.622375 4.84609986,20.46425 C4.31063503,20.2558125 3.92979641,20.007125 3.52891366,19.604625 C3.1280309,19.202125 2.88034262,18.81975 2.67274262,18.282125 C2.51525297,17.87675 2.32912883,17.2686875 2.27758676,16.1474375 C2.22318124,14.9341875 2.21029572,14.5705 2.21029572,11.5 C2.21029572,8.4295 2.22318124,8.0658125 2.27758676,6.8525625 C2.32912883,5.7313125 2.51525297,5.12325 2.67274262,4.717875 C2.88034262,4.18025 3.1280309,3.797875 3.52891366,3.395375 C3.92979641,2.992875 4.31063503,2.7441875 4.84609986,2.53575 C5.24984607,2.377625 5.85546538,2.19075 6.97221021,2.139 C8.18058538,2.084375 8.54281159,2.0714375 11.6009743,2.0714375 L11.6009743,2.0714375 Z" id="Fill-1"></path>
                <path d="M11.6009743,15.3333813 C9.49204469,15.3333813 7.78256607,13.6170063 7.78256607,11.4995688 C7.78256607,9.38356875 9.49204469,7.66719375 11.6009743,7.66719375 C13.709904,7.66719375 15.4193826,9.38356875 15.4193826,11.4995688 C15.4193826,13.6170063 13.709904,15.3333813 11.6009743,15.3333813 M11.6009743,5.59431875 C8.35239228,5.59431875 5.71945159,8.23788125 5.71945159,11.4995688 C5.71945159,14.7612563 8.35239228,17.4048188 11.6009743,17.4048188 C14.8495564,17.4048188 17.4824971,14.7612563 17.4824971,11.4995688 C17.4824971,8.23788125 14.8495564,5.59431875 11.6009743,5.59431875" id="Fill-3"></path>
                <path d="M19.0896074,5.3613 C19.0896074,6.123175 18.4739661,6.7413 17.7151523,6.7413 C16.9563385,6.7413 16.3406971,6.123175 16.3406971,5.3613 C16.3406971,4.599425 16.9563385,3.9813 17.7151523,3.9813 C18.4739661,3.9813 19.0896074,4.599425 19.0896074,5.3613" id="Fill-5"></path>
            </g>
        </g>
    </g>
</svg>