<?xml version="1.0" encoding="UTF-8"?>
<svg width="23px" height="23px" viewBox="0 0 23 23" version="1.1" xmlns="http://www.w3.org/2000/svg" xmlns:xlink="http://www.w3.org/1999/xlink">
    <!-- Generator: sketchtool 52.2 (67145) - http://www.bohemiancoding.com/sketch -->
    <title>58ACCD3F-42A2-428E-96C2-30DF8FEC676C</title>
    <desc>Created with sketchtool.</desc>
    <g id="Page-1" stroke="none" stroke-width="1" fill="none" fill-rule="evenodd">
        <g id="Desktop-HD-Copy" transform="translate(-1369.000000, -3232.000000)" fill="#FFFFFF">
            <path d="M1388.59887,3251.59888 L1385.19056,3251.59888 L1385.19056,3246.26144 C1385.19056,3244.98781 1385.16612,3243.3505 1383.41669,3243.3505 C1381.64281,3243.3505 1381.36969,3244.73769 1381.36969,3246.16944 L1381.36969,3251.59888 L1377.96137,3251.59888 L1377.96137,3240.62213 L1381.23312,3240.62213 L1381.23312,3242.12288 L1381.27912,3242.12288 C1381.73481,3241.25894 1382.84744,3240.35044 1384.50631,3240.35044 C1387.96062,3240.35044 1388.59887,3242.62313 1388.59887,3245.57863 L1388.59887,3251.59888 Z M1374.1175,3239.12281 C1373.02356,3239.12281 1372.13806,3238.23587 1372.13806,3237.14481 C1372.13806,3236.05375 1373.02356,3235.16681 1374.1175,3235.16681 C1375.20713,3235.16681 1376.09406,3236.05375 1376.09406,3237.14481 C1376.09406,3238.23587 1375.20713,3239.12281 1374.1175,3239.12281 L1374.1175,3239.12281 Z M1372.41119,3251.59888 L1375.82237,3251.59888 L1375.82237,3240.62212 L1372.41119,3240.62212 L1372.41119,3251.59888 Z M1390.298,3232 L1370.69769,3232 C1369.76187,3232 1369,3232.74319 1369,3233.65744 L1369,3253.33969 C1369,3254.25681 1369.76187,3255 1370.69769,3255 L1390.298,3255 C1391.23525,3255 1392,3254.25681 1392,3253.33969 L1392,3233.65744 C1392,3232.74319 1391.23525,3232 1390.298,3232 L1390.298,3232 Z" id="linkedin"></path>
        </g>
    </g>
</svg>