<?xml version="1.0" encoding="UTF-8"?>
<svg width="23px" height="19px" viewBox="0 0 23 19" version="1.1" xmlns="http://www.w3.org/2000/svg" xmlns:xlink="http://www.w3.org/1999/xlink">
    <!-- Generator: sketchtool 52.2 (67145) - http://www.bohemiancoding.com/sketch -->
    <title>27CCC468-F509-421E-93F0-6280CA57E5AD</title>
    <desc>Created with sketchtool.</desc>
    <g id="Page-1" stroke="none" stroke-width="1" fill="none" fill-rule="evenodd">
        <g id="Desktop-HD-Copy" transform="translate(-1282.000000, -3234.000000)" fill="#FFFFFF">
            <path d="M1289.2335,3253 C1297.91313,3253 1302.65975,3245.69107 1302.65975,3239.35238 C1302.65975,3239.14489 1302.65544,3238.9374 1302.64681,3238.73283 C1303.56681,3238.05483 1304.36894,3237.21026 1305,3236.24879 C1304.15475,3236.63016 1303.24481,3236.88733 1302.29031,3237.00423 C1303.26494,3236.41098 1304.01244,3235.46997 1304.36462,3234.35069 C1303.45325,3234.9001 1302.44412,3235.30047 1301.36887,3235.51527 C1300.50781,3234.58302 1299.28163,3234 1297.92463,3234 C1295.31844,3234 1293.20531,3236.14797 1293.20531,3238.79566 C1293.20531,3239.17265 1293.247,3239.53795 1293.3275,3239.8901 C1289.406,3239.68846 1285.92869,3237.78013 1283.60137,3234.87818 C1283.196,3235.58686 1282.96169,3236.41098 1282.96169,3237.28916 C1282.96169,3238.95347 1283.79544,3240.42198 1285.06188,3241.28117 C1284.2885,3241.25779 1283.56112,3241.04153 1282.92431,3240.68207 C1282.92287,3240.70107 1282.92287,3240.72153 1282.92287,3240.74198 C1282.92287,3243.06529 1284.55012,3245.00577 1286.70925,3245.44559 C1286.3125,3245.55518 1285.89563,3245.61363 1285.46581,3245.61363 C1285.16106,3245.61363 1284.86638,3245.58294 1284.57887,3245.52742 C1285.17831,3247.43282 1286.92056,3248.8195 1288.98625,3248.85896 C1287.3705,3250.14481 1285.33644,3250.91194 1283.12556,3250.91194 C1282.74463,3250.91194 1282.36944,3250.89003 1282,3250.84619 C1284.08869,3252.20657 1286.56838,3253 1289.2335,3253" id="twitter"></path>
        </g>
    </g>
</svg>